<?xml version="1.0" encoding="utf-8"?>
<!-- Generator: Adobe Illustrator 18.1.0, SVG Export Plug-In . SVG Version: 6.00 Build 0)  -->
<svg version="1.1" id="Layer_1" xmlns="http://www.w3.org/2000/svg" xmlns:xlink="http://www.w3.org/1999/xlink" x="0px" y="0px"
	 viewBox="0 0 150 150" enable-background="new 0 0 150 150" xml:space="preserve">
<g>
	<path fill="none" d="M28.1,48.9c1.6,0.4,3.4-0.1,5.1-1.2l0.6,5.2c-0.9,0.4-1.9,0.7-2.9,0.9c-1,0.2-1.9,0.2-2.9,0.1
		c0.6,1.3,1.6,2.5,3,3.2c3.2,1.6,7.1,0.3,8.7-2.9c0.5-0.9,0.7-1.9,0.7-2.9c0-1-0.2-2-0.6-2.8c-0.6-1.2-1.6-2.3-2.9-3
		c-0.2-0.1-0.5-0.2-0.7-0.3c-1.1-0.4-2.2-0.5-3.2-0.3c-2,0.3-3.8,1.5-4.8,3.5c0,0,0,0,0,0c-0.1,0.2-0.1,0.3-0.2,0.5
		C28,48.8,28,48.9,28.1,48.9C28.1,48.9,28.1,48.9,28.1,48.9z"/>
	<path fill="none" d="M101,58.8c-8.5-11.3-24.5-13.6-35.8-5.2C53.9,62.1,51.5,78.1,60,89.4c0.4,0.6,0.9,1.2,1.4,1.7
		c4.4,5,10.4,7.8,16.7,8.4c6.1,0.6,12.4-1,17.7-5C107.1,86.1,109.4,70.1,101,58.8z M82,87.6V91h-3v-3.4c-3-0.2-5.6-1.1-7.9-2.4
		l2-4.3c2.6,1.3,4.7,2.2,7.5,2.2c3.2,0,4.8-1.3,4.8-3.7c0-1.8-1.2-2.9-3.6-3.6l-3-0.8c-2.7-0.7-4.4-1.8-5.4-3.5
		c-0.7-1.2-1.4-2.6-1.4-4.2c0-4.5,3-7.8,8-8.4V56h4v2.9c3,0.3,5.3,1.2,7.3,2.6l-2.6,3.9c-2.5-1.5-4.4-2.1-6.4-2.1
		c-2.2,0-3.8,1.3-3.8,3.2c0,1.4,0.7,2.1,3,2.8l3.3,0.9c4.5,1.2,6.9,4.1,6.9,8.2C91.6,83.5,88,87,82,87.6z"/>
	<path fill="#FF6C0C" d="M99,109.9c-0.3-1.2-0.3-2.4,0-3.6l0.2-0.1l-2.2-3c-2,1.1-4,2-6.2,2.7c-1.4,0.4-2.7,0.8-4.2,1l10.1,5.1
		c1.3,0.6,2.6,1,4,1.1l-0.5-0.7C99.6,111.7,99.2,110.8,99,109.9z"/>
	<path fill="#FF6C0C" d="M106.2,100.9c2,0.1,3.9,0.9,5.2,2.5c0.1,0.1,0.2,0.2,0.3,0.4l0.2,0.2l12.7-25.2c0.6-1.2,0.9-2.4,1-3.6
		c0.3-3.9-1.7-7.9-5.4-9.7l-9-4.5c5.4,12.6,2.5,27.5-7.5,37.2l2.2,3L106.2,100.9z"/>
	<path fill="#FF6C0C" d="M47.4,69.4c1.3-8.8,5.9-16.7,13.1-22c3.7-2.8,7.9-4.7,12.3-5.8l-18.2-9.2C53.8,32,51,32,47.2,32.5
		c-1.6,0.2-3.4,0.5-5.2,1c-3.3,0.8-6.8,1.9-10,3.4c-3.6,1.7-6.8,4-8.9,6.9c1.1,2.6,2.7,4.4,4.7,5c0.1-0.2,0.1-0.3,0.2-0.5
		c0,0,0,0,0,0c1-1.9,2.8-3.2,4.8-3.5c1.1-0.2,2.2-0.1,3.2,0.3c0.2,0.1,0.5,0.2,0.7,0.3c1.3,0.7,2.3,1.7,2.9,3
		c0.4,0.9,0.6,1.9,0.6,2.8c0,1-0.2,1.9-0.7,2.9c-1.6,3.2-5.5,4.5-8.7,2.9c-1.4-0.7-2.4-1.9-3-3.2c-0.3,0-0.7-0.1-1-0.2
		c-2.3-0.5-4.2-1.8-5.7-3.7c-0.1-0.2-0.3-0.3-0.4-0.5C18.8,61.3,28.9,77.9,31,79l19.3,9.7c-0.6-1.3-1.2-2.6-1.6-4
		C47.1,79.9,46.6,74.6,47.4,69.4z"/>
	<path fill="#003C50" d="M106,101.1l-2.2-3l-0.6-0.8l-0.6-0.8c9.9-9.7,12.2-24.8,5.8-37c-0.8-1.4-1.6-2.9-2.7-4.2
		c-0.1-0.2-0.2-0.3-0.4-0.4c-6-7.7-14.9-11.9-24.1-12.1c-0.3,0-0.5,0-0.8,0c-1.6,0-3.2,0.1-4.8,0.4c-4.9,0.8-9.8,2.7-14,5.9
		c-11.7,8.8-15.6,24.2-10.2,37.2c0.6,1.4,1.3,2.8,2.1,4.2c0.5,0.9,1.1,1.8,1.8,2.6c6.2,8.3,15.6,12.6,25.2,12.6c1,0,2-0.1,2.9-0.2
		c1.6-0.1,3.1-0.4,4.7-0.8c2.6-0.7,5.2-1.7,7.6-3l0.6,0.8l0.6,0.8l2.2,3L106,101.1z M95.8,94.6c-5.3,4-11.6,5.6-17.7,5
		c-6.3-0.6-12.3-3.5-16.7-8.4c-0.5-0.5-1-1.1-1.4-1.7c-8.5-11.3-6.2-27.3,5.2-35.8c11.3-8.5,27.3-6.2,35.8,5.2
		C109.4,70.1,107.1,86.1,95.8,94.6z"/>
	<path fill="#0CA89D" d="M27,53.6c0.3,0.1,0.7,0.1,1,0.2c1,0.1,1.9,0.1,2.9-0.1c1-0.2,1.9-0.5,2.9-0.9l-0.6-5.2
		c-1.7,1.1-3.4,1.6-5.1,1.2c0,0,0,0,0,0c-0.1,0-0.1,0-0.2-0.1c-2.1-0.6-3.7-2.4-4.7-5c-0.1-0.3-0.3-0.7-0.4-1.1
		c-1.2-3.9-1.4-9.1-0.1-14.5c1.3-5.7,4-10.4,7-13.3c2.3-2.2,4.8-3.3,7.1-2.8c4.9,1.2,7.4,9.3,5.9,18.4c1.8-0.4,3.5-0.7,5.1-1
		C49,18.6,45.1,9.2,37.9,7.5c-3-0.7-6,0-8.8,1.8c-4.9,3.1-9.2,9.6-11.2,17.8c-2.1,9.1-0.8,17.5,3,22.3c0.1,0.2,0.2,0.3,0.4,0.5
		C22.8,51.8,24.7,53.1,27,53.6z"/>
	<path fill="#0CA89D" d="M130.2,128.4L111.9,104l-0.2-0.2c-0.1-0.1-0.2-0.2-0.3-0.4c-1.4-1.6-3.3-2.5-5.2-2.5l-0.2,0.2l-6.8,5.1
		l-0.2,0.1c-0.3,1.2-0.3,2.4,0,3.6c0.2,0.9,0.6,1.8,1.2,2.6l0.5,0.7l17.9,23.9c2.4,3.2,6.9,3.9,10.1,1.5
		C132,136.2,132.6,131.6,130.2,128.4z"/>
	<path fill="#0CA89D" d="M84.7,70.3l-3.3-0.9c-2.3-0.6-3-1.3-3-2.8c0-1.9,1.6-3.2,3.8-3.2c2.1,0,3.9,0.6,6.4,2.1l2.7-3.9
		c-2-1.4-4.3-2.4-7.3-2.6V56h-4v2.9c-5,0.6-8,3.9-8,8.4c0,1.5,0.5,3,1.3,4.2c1,1.7,2.7,2.7,5.5,3.5l3.1,0.8c2.4,0.7,3.6,1.8,3.6,3.6
		c0,2.4-1.7,3.7-4.8,3.7c-2.8,0-5-0.9-7.5-2.2l-1.9,4.3c2.3,1.3,4.9,2.2,7.9,2.4V91h3v-3.4c6-0.6,9.6-4.1,9.6-9.2
		C91.6,74.4,89.2,71.5,84.7,70.3z"/>
</g>
</svg>
